<svg width="46" height="46" viewBox="0 0 46 46" fill="none" xmlns="http://www.w3.org/2000/svg">
<path fill-rule="evenodd" clip-rule="evenodd" d="M45.8637 27.2111L45.9962 29.9648C46.0246 30.5515 45.8921 30.9962 45.5893 31.3085C45.296 31.6208 44.8607 31.7722 44.3024 31.7722H44.1415C42.7316 31.7059 41.3192 31.6397 39.9069 31.5735C38.4946 31.5072 37.0823 31.441 35.6723 31.3747C35.3033 31.3653 34.7828 31.3369 34.3759 30.93C34.2529 30.807 34.1488 30.6556 34.0636 30.4758C33.6378 29.5768 34.2245 28.9901 34.5084 28.7062L35.2181 27.9965C35.7102 27.495 36.2022 27.0029 36.7038 26.5109L29.6067 19.4138L23.4086 25.6119C22.9449 26.0756 22.3298 26.3311 21.6769 26.3311C21.0239 26.3311 20.4183 26.0756 19.9546 25.6119L0.716806 6.37407C-0.238935 5.41833 -0.238935 3.87589 0.716806 2.92015L1.18048 2.45648C1.64416 1.9928 2.25924 1.7373 2.91217 1.7373C3.5651 1.7373 4.17072 1.9928 4.6344 2.45648L21.6958 19.5084L27.8939 13.3103C28.3481 12.8466 28.9727 12.5911 29.6161 12.5911C30.2596 12.5911 30.8747 12.8466 31.3384 13.3103L40.6214 22.5933C40.645 22.5696 40.6687 22.5483 40.6923 22.527C40.716 22.5057 40.7396 22.4845 40.7633 22.4608L42.2016 21.0225L42.7978 20.4263C43.0533 20.1708 43.4129 19.8112 43.9617 19.8112C44.1888 19.8112 44.4254 19.868 44.662 20.0005C44.8228 20.0856 44.9648 20.1992 45.0783 20.3127C45.5136 20.7386 45.5893 21.2874 45.6082 21.7132C45.651 22.6352 45.6938 23.5548 45.7366 24.4744C45.7789 25.3859 45.8213 26.2973 45.8637 27.2111ZM2.25879 43.0137C2.25879 43.7045 2.81709 44.2628 3.50788 44.2628H8.8165C9.50728 44.2628 10.0656 43.7045 10.0656 43.0137V20.7951L2.25879 12.9883V43.0137ZM13.1035 23.833V43.0141C13.1035 43.7049 13.6618 44.2632 14.3526 44.2632H19.6612C20.352 44.2632 20.9103 43.7049 20.9103 43.0141V29.8608C19.5855 29.6905 18.3648 29.1038 17.4091 28.148L13.1035 23.833ZM34.8018 43.0139V34.9043C35.0951 34.9421 35.3506 34.9611 35.5115 34.9705C36.6943 35.0273 37.8772 35.0817 39.06 35.1361C40.2429 35.1905 41.4257 35.245 42.6086 35.3017V43.0139C42.6086 43.7047 42.0503 44.263 41.3595 44.263H36.0508C35.3601 44.263 34.8018 43.7047 34.8018 43.0139ZM31.6415 26.5198L29.607 24.4854L25.9449 28.1474C25.3677 28.7247 24.6863 29.1694 23.9482 29.4722V43.0135C23.9482 43.7043 24.5065 44.2626 25.1973 44.2626H30.506C31.1967 44.2626 31.755 43.7043 31.755 43.0135V33.3804C31.3671 32.9735 31.0453 32.5098 30.7993 31.9799C30.3924 31.0714 29.6732 28.7815 31.6415 26.5198Z" fill="#0753A6"/>
</svg>
