<svg width="48" height="48" viewBox="0 0 48 48" fill="none" xmlns="http://www.w3.org/2000/svg">
<path d="M47.9912 16.8004C47.912 15.4316 46.284 14.362 43.028 13.546C43.1376 13.306 43.1992 13.0564 43.2 12.7972V7.20039H43.1864C42.9 2.53799 23.7944 2.40039 21.6 2.40039C19.4056 2.40039 0.3 2.53799 0.0136 7.20039H0V7.30439V12.7996C0.004 14.3196 1.9656 15.5092 4.884 16.3948C4.844 16.5276 4.82 16.6628 4.812 16.8004H4.8V16.9044V22.39C1.656 23.1996 0.0856 24.254 0.008 25.6004H0V25.7044V31.1996C0.0024 32.258 0.9568 33.1556 2.5184 33.9036C2.46 34.0652 2.4224 34.2308 2.412 34.4004H2.4V34.5044V39.9996C2.4064 42.6604 8.3976 44.3124 15.0544 45.0836C15.1032 45.0932 15.148 45.1132 15.2 45.1132C15.2152 45.1132 15.228 45.1052 15.2432 45.1044C16.5264 45.2492 17.8304 45.362 19.1208 45.4428C19.148 45.446 19.172 45.4588 19.2 45.4588C19.2152 45.4588 19.2272 45.4508 19.2416 45.45C20.88 45.55 22.492 45.6004 24 45.6004C25.508 45.6004 27.12 45.55 28.7584 45.45C28.7728 45.4508 28.7856 45.4588 28.8 45.4588C28.828 45.4588 28.852 45.4452 28.8792 45.4428C30.1696 45.362 31.4736 45.25 32.7568 45.1044C32.772 45.1044 32.7848 45.1124 32.8 45.1124C32.852 45.1124 32.8968 45.0924 32.9456 45.0828C39.6024 44.3116 45.5928 42.6588 45.6 39.9972V34.4004H45.5872C45.5312 33.4196 44.6952 32.6012 43.044 31.9172C43.1448 31.686 43.2 31.446 43.2 31.1972V25.9684C46.072 25.0852 47.996 23.9036 48 22.3972V16.8004H47.9912ZM5.6 14.9396V11.0748C6.3472 11.2764 7.1504 11.4604 8 11.6276V15.5324C7.9016 15.5116 7.8 15.4908 7.704 15.47C7.2784 15.3764 6.8632 15.2788 6.4664 15.1756C6.164 15.098 5.8768 15.0188 5.6 14.9396ZM41.4168 13.186L41.3944 13.1812L41.1032 13.4076C40.6808 13.7364 40.032 14.0692 39.2 14.3908V10.5852C40.1512 10.254 40.9608 9.88679 41.6 9.48439V12.7948C41.6 12.9164 41.536 13.0476 41.4168 13.186ZM20.14 31.1868C20.36 31.1908 20.58 31.194 20.8 31.1964V35.1948C20.6448 35.1932 20.4896 35.1932 20.3352 35.1908C20.2648 35.19 20.1968 35.1876 20.1272 35.1868C19.7608 35.1804 19.396 35.1716 19.0336 35.1604C18.9888 35.1588 18.944 35.1572 18.8992 35.1556C18.4632 35.1412 18.0304 35.1228 17.6008 35.102V31.1084C18.4024 31.146 19.208 31.1708 20.0136 31.1852C20.0552 31.1852 20.0976 31.186 20.14 31.1868ZM23.1872 31.1844C23.9928 31.1692 24.7984 31.1444 25.6 31.1076V35.102C25.4288 35.1108 25.2568 35.1188 25.0832 35.126C24.6032 35.146 24.116 35.1628 23.6208 35.1748C23.504 35.178 23.3864 35.1796 23.2688 35.182C22.9832 35.1876 22.6904 35.1892 22.4008 35.1916V31.1956C22.6208 31.1932 22.8408 31.19 23.0608 31.186C23.1024 31.186 23.1448 31.1852 23.1872 31.1844ZM27.7328 34.9668C27.5568 34.9804 27.3792 34.994 27.2 35.0068V31.0172C28.0112 30.9636 28.8128 30.8996 29.6 30.8228V34.7956C29.1056 34.8476 28.6 34.8964 28.0808 34.9388C27.9648 34.9492 27.8488 34.958 27.7328 34.9668ZM31.2 30.65C32.0248 30.5508 32.8256 30.438 33.6 30.3124V34.2404C32.8464 34.3732 32.0456 34.4956 31.2 34.6068V30.65ZM14.0152 34.8388C13.9336 34.8308 13.8528 34.822 13.772 34.814C13.7144 34.8084 13.6576 34.8012 13.6 34.7956V30.8236C14.3872 30.8996 15.1888 30.9644 16 31.018V35.0044C15.328 34.9564 14.664 34.902 14.0152 34.8388ZM12 30.65V34.6068C11.1544 34.4956 10.3536 34.3732 9.6 34.2404V30.3124C10.3744 30.438 11.1752 30.5516 12 30.65ZM35.2 33.9316V30.0268C36.0496 29.8596 36.8528 29.6756 37.6 29.474V33.3388C36.8872 33.5444 36.0848 33.7436 35.2 33.9316ZM20.14 12.7868C20.36 12.7908 20.58 12.794 20.8 12.7964V16.7908C19.7232 16.7804 18.6528 16.7524 17.6 16.6996V12.7084C18.4016 12.746 19.2072 12.7708 20.0128 12.7852C20.0552 12.7852 20.0976 12.786 20.14 12.7868ZM23.1872 12.7844C23.9928 12.7692 24.7984 12.7444 25.6 12.7076V16.6988C25.464 16.7052 25.3336 16.7148 25.1968 16.7212C25.1856 16.722 25.1744 16.722 25.1624 16.7228C24.6256 16.7468 24.0784 16.7644 23.524 16.7772C23.4376 16.7796 23.3512 16.7804 23.2648 16.7828C22.98 16.7884 22.6888 16.7892 22.4 16.7924V12.7964C22.62 12.794 22.84 12.7908 23.06 12.7868C23.1024 12.786 23.1448 12.7852 23.1872 12.7844ZM27.9872 22.3844C28.7928 22.3692 29.5984 22.3444 30.4 22.3076V26.298C29.3488 26.35 28.28 26.3788 27.2 26.39V22.3964C27.42 22.394 27.64 22.3908 27.86 22.3868C27.9024 22.386 27.9448 22.3852 27.9872 22.3844ZM20.2776 26.1676C19.7656 26.1276 19.2656 26.0836 18.7776 26.0348C18.6728 26.0244 18.568 26.0132 18.464 26.0028C18.4424 26.0004 18.4216 25.9972 18.4 25.9956V22.0228C19.1872 22.0988 19.9888 22.1636 20.8 22.2172V26.2044C20.7352 26.1996 20.6664 26.1964 20.6016 26.1916C20.4928 26.1836 20.3848 26.1756 20.2776 26.1676ZM15.316 25.594C14.9992 25.5436 14.7016 25.4892 14.4 25.4364V21.5132C15.1744 21.6388 15.9752 21.7516 16.8 21.8508V25.8076C16.3104 25.7428 15.8312 25.6756 15.3712 25.6036C15.3528 25.5996 15.3344 25.5964 15.316 25.594ZM24.94 22.3868C25.16 22.3908 25.38 22.394 25.6 22.3964V26.3908C25.2104 26.3868 24.8176 26.3852 24.4376 26.3764C24.3792 26.3748 24.3184 26.374 24.26 26.3732C23.6584 26.358 23.0704 26.3348 22.4928 26.3068C22.4616 26.3052 22.4304 26.3036 22.4 26.3028V22.3084C23.2016 22.346 24.0072 22.3708 24.8128 22.3852C24.8552 22.3852 24.8976 22.386 24.94 22.3868ZM32.9936 26.1292C32.9648 26.1316 32.9368 26.134 32.908 26.1364C32.6096 26.1612 32.3016 26.1772 31.9992 26.1988V22.2164C32.8104 22.1628 33.612 22.0988 34.3992 22.022V25.9908C33.9352 26.0404 33.4712 26.0892 32.9936 26.1292ZM13.6 16.3924V12.4228C14.3872 12.4988 15.1888 12.5636 16 12.6172V16.5996C15.1856 16.5412 14.3824 16.4748 13.6 16.3924ZM29.6 16.3908C28.8272 16.4724 28.0272 16.5436 27.2 16.6028V12.6172C28.0112 12.5636 28.8128 12.4996 29.6 12.4228V16.3908ZM31.2 12.25C32.0248 12.1508 32.8256 12.038 33.6 11.9124V15.834C32.8416 15.9676 32.0432 16.0908 31.2 16.202V12.25ZM35.2 15.526V11.6276C36.0496 11.4604 36.8528 11.2764 37.6 11.0748V14.9308C36.8832 15.1396 36.076 15.3388 35.2 15.526ZM12 12.25V16.2028C11.8416 16.182 11.6768 16.1652 11.52 16.1436C11.4176 16.1292 11.32 16.114 11.2192 16.0996C10.7568 16.0332 10.3048 15.962 9.8616 15.8876C9.7728 15.8724 9.6872 15.8564 9.6 15.8412V11.9132C10.3744 12.038 11.1752 12.1516 12 12.25ZM12.8 21.2268V25.1252C11.916 24.9356 11.1144 24.734 10.4 24.5244V20.674C11.1472 20.8756 11.9504 21.0604 12.8 21.2268ZM38.3256 25.454C37.9744 25.5148 37.62 25.5748 37.256 25.63C37.0472 25.662 36.8336 25.6924 36.6192 25.7228C36.4168 25.7516 36.2064 25.7764 36.0008 25.8028V21.85C36.8256 21.7508 37.6264 21.638 38.4008 21.5124V25.4404C38.3752 25.4452 38.3504 25.45 38.3256 25.454ZM8.8 20.1852V23.986C7.5424 23.5004 6.7312 23.0044 6.4672 22.5628L6.4136 22.4732C6.4088 22.4484 6.4008 22.422 6.4 22.3972V19.0844C7.0392 19.4868 7.8488 19.854 8.8 20.1852ZM8 30.0268V33.9316C7.2656 33.7756 6.588 33.6116 5.9712 33.4436C5.8736 33.4164 5.7728 33.39 5.6776 33.362C5.6512 33.354 5.6264 33.3468 5.6 33.3396V29.4748C6.3472 29.6756 7.1504 29.8604 8 30.0268ZM10.4 38.8268V42.7316C9.5152 42.5436 8.7128 42.3444 8 42.1388V38.274C8.7472 38.4756 9.5504 38.6604 10.4 38.8268ZM12 39.1132C12.7744 39.2388 13.5752 39.3516 14.4 39.4508V43.4076C13.5544 43.2964 12.7536 43.174 12 43.0412V39.1132ZM16 39.6228C16.7872 39.6988 17.5888 39.7636 18.4 39.8172V43.8068C17.5688 43.7484 16.7688 43.6772 16 43.5964V39.6228ZM20 39.9076C20.8016 39.9452 21.6072 39.97 22.4128 39.9844C22.4552 39.9852 22.4976 39.986 22.5392 39.9868C22.7592 39.9908 22.9792 39.994 23.1992 39.9964V43.9956C22.0936 43.9852 21.0264 43.9532 19.9992 43.9028V39.9076H20ZM24.8 39.9956C25.02 39.9932 25.24 39.99 25.46 39.986C25.5024 39.9852 25.5448 39.9844 25.5872 39.9836C26.3928 39.9684 27.1984 39.9436 28 39.9068V43.9012C26.9728 43.9516 25.9056 43.9836 24.8 43.994V39.9956ZM29.6 39.8172C30.4112 39.7636 31.2128 39.6996 32 39.6228V43.5956C31.2312 43.6764 30.4312 43.7476 29.6 43.806V39.8172ZM33.6 39.45C34.4248 39.3508 35.2256 39.238 36 39.1124V43.0404C35.2464 43.1732 34.4456 43.2956 33.6 43.4068V39.45ZM37.6 38.8268C38.4496 38.6596 39.2528 38.4756 40 38.274V42.1388C39.2872 42.3444 38.4848 42.5436 37.6 42.7316V38.8268ZM41.5136 31.4572L41.2408 31.6964C40.8208 32.0668 40.1208 32.4404 39.2 32.8004V28.986C40.1512 28.6548 40.9608 28.2876 41.6 27.8852V31.1956C41.6 31.278 41.5696 31.366 41.5136 31.4572ZM42.0512 24.6372C41.6528 24.7484 41.2312 24.8524 40.8008 24.954C40.6016 25.0004 40.3984 25.0468 40.1904 25.0916C40.1288 25.1052 40.0632 25.1172 40.0008 25.1308V21.2276C40.8504 21.0604 41.6536 20.8764 42.4008 20.6748V24.5396C42.2856 24.5716 42.1696 24.6044 42.0512 24.6372ZM1.6 12.7972V9.48439C2.2392 9.88679 3.0488 10.254 4 10.5852V14.4156C2.444 13.8324 1.6016 13.2476 1.6 12.7972ZM1.6 31.1972V27.8844C2.2392 28.2868 3.0488 28.654 4 28.9852V32.8004L3.5432 32.6228L3.5336 32.6324C2.2776 32.1116 1.6016 31.6004 1.6 31.1972ZM4 39.9972V36.6844C4.6392 37.0868 5.4488 37.454 6.4 37.7852V41.6156C4.844 41.0324 4.0016 40.4476 4 39.9972ZM41.6 41.6156V37.786C42.5512 37.4548 43.3608 37.0876 44 36.6852V39.9956C43.9992 40.446 43.156 41.0316 41.6 41.6156ZM44 24.0156V20.186C44.9512 19.8548 45.7608 19.4876 46.4 19.0852V22.3956C46.3992 22.846 45.556 23.4316 44 24.0156Z" fill="#0753A6"/>
</svg>
