<svg width="46" height="46" viewBox="0 0 46 46" fill="none" xmlns="http://www.w3.org/2000/svg">
<g clip-path="url(#clip0)">
<path fill-rule="evenodd" clip-rule="evenodd" d="M2.875 5.7499C2.875 2.57883 5.45383 0 8.6249 0C11.7931 0 14.3748 2.57883 14.3748 5.7499C14.3748 8.92097 11.7931 11.4998 8.6249 11.4998C5.45383 11.4998 2.875 8.92097 2.875 5.7499ZM28.7498 5.7499C28.7498 8.92548 26.1755 11.4998 22.9999 11.4998C19.8243 11.4998 17.25 8.92548 17.25 5.7499C17.25 2.57432 19.8243 0 22.9999 0C26.1755 0 28.7498 2.57432 28.7498 5.7499ZM30.3078 16.9625L31.6131 27.1283C31.6677 27.5394 31.5412 27.9534 31.2652 28.261C30.9921 28.5715 30.6011 28.7497 30.1871 28.7497H28.6375L27.4386 43.3861C27.2891 44.884 26.0587 45.9994 24.5752 45.9994H21.4271C19.9436 45.9994 18.7103 44.884 18.5665 43.412L17.3648 28.7497H15.8123C15.3983 28.7497 15.0074 28.5715 14.7342 28.261C14.4611 27.9534 14.3346 27.5394 14.3864 27.1312L15.6945 16.9251C15.8382 15.4876 17.0687 14.375 18.5522 14.375H20.1248C20.5071 14.375 20.8723 14.5274 21.1425 14.7947L22.9997 16.652L24.8569 14.7947C25.1272 14.5274 25.4923 14.375 25.8747 14.375H27.4501C28.9307 14.375 30.1612 15.4876 30.3078 16.9625ZM37.3739 11.4998C40.5495 11.4998 43.1238 8.92548 43.1238 5.7499C43.1238 2.57432 40.5495 0 37.3739 0C34.1983 0 31.624 2.57432 31.624 5.7499C31.624 8.92548 34.1983 11.4998 37.3739 11.4998ZM45.9883 27.1283L44.6831 16.9653C44.5365 15.4876 43.3089 14.375 41.8254 14.375H40.25C39.8676 14.375 39.5025 14.5274 39.2322 14.7947L37.375 16.652L35.5178 14.7947C35.2476 14.5274 34.8824 14.375 34.5029 14.375H32.9275C32.8086 14.375 32.6975 14.4031 32.5863 14.4312C32.5307 14.4453 32.4751 14.4593 32.4186 14.4699C32.7895 15.1254 33.0798 15.8355 33.1661 16.6318L34.4684 26.7632C34.6294 27.9965 34.2442 29.2385 33.4162 30.1728C33.0252 30.6213 32.525 30.9376 31.9902 31.1848L32.9447 40.537C33.0913 42.0119 34.3218 43.1245 35.8053 43.1245H38.9534C40.4368 43.1245 41.6673 42.009 41.8168 40.5112L43.0128 28.7497H44.5624C44.9764 28.7497 45.3674 28.5715 45.6405 28.261C45.9165 27.9534 46.043 27.5394 45.9883 27.1283ZM11.5343 26.7689C11.379 27.9965 11.7585 29.2356 12.575 30.1585C12.9775 30.6127 13.4806 30.9318 14.0181 31.182L13.0636 40.5112C12.9141 42.009 11.6837 43.1245 10.2002 43.1245H7.05212C5.56865 43.1245 4.33529 42.009 4.19154 40.537L2.98981 28.7497H1.43734C1.02622 28.7497 0.632356 28.5715 0.359235 28.261C0.0861153 27.9534 -0.0403825 27.5394 0.0113666 27.1312L1.31947 16.9251C1.46322 15.4876 2.69369 14.375 4.17717 14.375H5.75273C6.13222 14.375 6.49734 14.5274 6.76759 14.7947L8.62481 16.652L10.482 14.7947C10.7523 14.5274 11.1174 14.375 11.4998 14.375H13.0752C13.1852 14.375 13.2879 14.4016 13.3904 14.4281C13.446 14.4425 13.5016 14.4569 13.5582 14.467C13.1989 15.1052 12.9171 15.7952 12.8424 16.56L11.5343 26.7689Z" fill="#0753A6"/>
</g>
<defs>
<clipPath id="clip0">
<rect width="46" height="46" fill="white"/>
</clipPath>
</defs>
</svg>
