<svg width="58" height="48" viewBox="0 0 58 48" fill="none" xmlns="http://www.w3.org/2000/svg">
<path fill-rule="evenodd" clip-rule="evenodd" d="M16.4014 0C15.2968 0 14.4014 0.895431 14.4014 2V4.79998H43.2012V2C43.2012 0.89543 42.3058 0 41.2012 0H16.4014ZM2 8.40039C0.895431 8.40039 0 9.29582 0 10.4004V13.2004H10.7999V8.40039H2ZM0 16.7998H10.7999V47.9997H2C0.895429 47.9997 0 47.1042 0 45.9997V16.7998ZM7.19367 24.5998C7.19367 25.5939 6.38779 26.3998 5.39368 26.3998C4.39957 26.3998 3.59369 25.5939 3.59369 24.5998C3.59369 23.6057 4.39957 22.7998 5.39368 22.7998C6.38779 22.7998 7.19367 23.6057 7.19367 24.5998ZM5.39343 34.8002C6.38754 34.8002 7.19342 33.9943 7.19342 33.0002C7.19342 32.0061 6.38754 31.2002 5.39343 31.2002C4.39932 31.2002 3.59344 32.0061 3.59344 33.0002C3.59344 33.9943 4.39932 34.8002 5.39343 34.8002ZM7.19342 41.3999C7.19342 42.394 6.38754 43.1999 5.39343 43.1999C4.39932 43.1999 3.59344 42.394 3.59344 41.3999C3.59344 40.4058 4.39932 39.5999 5.39343 39.5999C6.38754 39.5999 7.19342 40.4058 7.19342 41.3999ZM46.7969 8.40039H55.5968C56.7014 8.40039 57.5968 9.29582 57.5968 10.4004V13.2004H46.7969V8.40039ZM57.5968 16.7998H46.7969V47.9997H55.5968C56.7014 47.9997 57.5968 47.1042 57.5968 45.9997V16.7998ZM52.2011 26.3998C53.1952 26.3998 54.0011 25.5939 54.0011 24.5998C54.0011 23.6057 53.1952 22.7998 52.2011 22.7998C51.207 22.7998 50.4011 23.6057 50.4011 24.5998C50.4011 25.5939 51.207 26.3998 52.2011 26.3998ZM54.0011 33.0002C54.0011 33.9943 53.1952 34.8002 52.2011 34.8002C51.207 34.8002 50.4011 33.9943 50.4011 33.0002C50.4011 32.0061 51.207 31.2002 52.2011 31.2002C53.1952 31.2002 54.0011 32.0061 54.0011 33.0002ZM52.2011 43.1999C53.1952 43.1999 54.0011 42.394 54.0011 41.3999C54.0011 40.4058 53.1952 39.5999 52.2011 39.5999C51.207 39.5999 50.4011 40.4058 50.4011 41.3999C50.4011 42.394 51.207 43.1999 52.2011 43.1999ZM14.4014 8.40039H43.2012V48.0002H38.0999V38.4004C38.0999 36.9092 36.8911 35.7004 35.3999 35.7004H22.2C20.7088 35.7004 19.5 36.9092 19.5 38.4004V48.0002H14.4014V8.40039ZM22.5 48.0002H19.5V48.0004H22.5V48.0002ZM27.2999 48.0002V38.7004H22.5V48.0002H27.2999ZM30.2999 48.0002H27.2999V48.0004H30.2999V48.0002ZM35.0999 48.0002H38.0999V48.0004H35.0999V48.0002ZM35.0999 48.0002V38.7004H30.2999V48.0002H35.0999ZM29.4045 12.0003C28.4104 12.0003 27.6046 12.8062 27.6046 13.8003V15.0003H26.4045C25.4104 15.0003 24.6046 15.8062 24.6046 16.8003C24.6046 17.7944 25.4104 18.6003 26.4045 18.6003H27.6046V19.8003C27.6046 20.7944 28.4104 21.6003 29.4045 21.6003C30.3987 21.6003 31.2045 20.7944 31.2045 19.8003V18.6003H32.4045C33.3986 18.6003 34.2045 17.7944 34.2045 16.8003C34.2045 15.8062 33.3986 15.0003 32.4045 15.0003H31.2045V13.8003C31.2045 12.8062 30.3987 12.0003 29.4045 12.0003ZM21.6034 31.2003C22.9289 31.2003 24.0034 30.1257 24.0034 28.8003C24.0034 27.4748 22.9289 26.4003 21.6034 26.4003C20.2779 26.4003 19.2034 27.4748 19.2034 28.8003C19.2034 30.1257 20.2779 31.2003 21.6034 31.2003ZM31.2011 28.8003C31.2011 30.1257 30.1266 31.2003 28.8011 31.2003C27.4756 31.2003 26.4011 30.1257 26.4011 28.8003C26.4011 27.4748 27.4756 26.4003 28.8011 26.4003C30.1266 26.4003 31.2011 27.4748 31.2011 28.8003ZM35.9988 31.2003C37.3243 31.2003 38.3988 30.1257 38.3988 28.8003C38.3988 27.4748 37.3243 26.4003 35.9988 26.4003C34.6733 26.4003 33.5988 27.4748 33.5988 28.8003C33.5988 30.1257 34.6733 31.2003 35.9988 31.2003Z" fill="#0753A6"/>
</svg>
