<svg width="103" height="44" viewBox="0 0 103 44" fill="none" xmlns="http://www.w3.org/2000/svg">
<path d="M62.459 18.3967C65.0746 18.3967 66.4817 20.3794 66.4817 22.4619C66.5168 24.5619 65.1097 26.5908 62.459 26.5908H59.4102V18.3967H62.459ZM62.435 25.0119C63.9484 25.0119 64.7346 23.7923 64.7346 22.4785C64.7346 21.1647 63.9253 19.984 62.435 19.984H61.1572V25.0119H62.435Z" fill="#383535"/>
<path d="M73.6682 25.2333L73.0344 26.5942H71.2051V26.3605L74.9848 18.3142H75.795L79.5479 26.3605V26.5951H77.7297L77.0829 25.2342L73.6682 25.2333ZM74.2419 23.7551H76.5175L75.3802 21.0453L74.2419 23.7551Z" fill="#383535"/>
<path d="M83.6074 19.9101V18.3848H89.683V19.9101H87.5017V26.5955H85.8008V19.9101H83.6074Z" fill="#383535"/>
<path d="M96.1986 25.2333L95.5648 26.5942H93.7383V26.3605L97.5143 18.3142H98.3236L102.077 26.3605V26.5951H100.259L99.6124 25.2342L96.1986 25.2333ZM96.7724 23.7551H99.0479L97.9106 21.0453L96.7724 23.7551Z" fill="#383535"/>
<path d="M65.6143 38.0558C65.6143 39.838 64.1711 40.894 62.473 40.894C60.7749 40.894 59.4121 39.838 59.4121 38.0558V37.0598H61.0428V38.0206C61.0428 38.9002 61.6406 39.3344 62.473 39.3344C63.3054 39.3344 63.8589 38.8725 63.8589 38.0206V34.0793H62.3935V32.5659H65.6189L65.6143 38.0558Z" fill="#383535"/>
<path d="M69.7229 39.4154L69.0891 40.7763H67.2598V40.5416L71.0367 32.4954H71.8423L75.5952 40.5416V40.7763H73.7825L73.1358 39.4154H69.7229ZM70.2976 37.9371H72.5731L71.4349 35.2273L70.2976 37.9371Z" fill="#383535"/>
<path d="M82.6885 36.5193C83.4507 36.8352 83.8618 37.5041 83.8618 38.3486C83.8618 39.7917 82.9 40.7766 81.2573 40.7766H77.4453V32.5779H80.9293C82.4307 32.5779 83.5098 33.4694 83.5098 35.0059C83.511 35.3068 83.4364 35.6032 83.2929 35.8677C83.1493 36.1322 82.9415 36.3563 82.6885 36.5193ZM79.1933 34.0792V35.9437H80.8046C81.4033 35.9437 81.7784 35.6157 81.7904 35.0641C81.8015 34.4663 81.4144 34.0792 80.8046 34.0792H79.1933ZM79.1933 37.3748V39.2522H81.14C81.7387 39.2522 82.0907 38.9001 82.1258 38.3486C82.1368 38.1941 82.1092 38.0393 82.0457 37.8981C81.9822 37.7568 81.8846 37.6335 81.7618 37.5392C81.5631 37.3988 81.3275 37.3748 81.0578 37.3748H79.1933Z" fill="#383535"/>
<path d="M87.5959 39.4154L86.9621 40.7763H85.1328V40.5416L88.9097 32.4954H89.7191L93.472 40.5416V40.7763H91.6537L91.007 39.4154H87.5959ZM88.1706 37.9371H90.4462L89.3042 35.2283L88.1706 37.9371Z" fill="#383535"/>
<path d="M102.111 40.5185V40.7642H100.234L98.5446 38.0553H97.0784V40.7642H95.3184V32.5544C96.4917 32.5544 97.6531 32.5424 98.8292 32.5544C100.706 32.5544 101.727 33.9144 101.727 35.3695C101.727 36.4126 101.199 37.3282 100.26 37.7855L102.111 40.5185ZM98.8153 36.6122C99.5545 36.6122 100.035 36.0375 100.023 35.3335C100.011 34.6295 99.5609 34.0909 98.8153 34.0909H97.0599V36.6122H98.8153Z" fill="#383535"/>
<path d="M61.2328 9.58368C61.2725 10.3995 62.165 10.7441 63.0316 10.7441C63.8216 10.7441 64.7399 10.5529 64.7399 9.62156C64.7399 8.60527 63.6433 8.51288 62.7887 8.44913C61.17 8.30869 59.5384 7.7599 59.5384 5.91117C59.5384 3.93494 61.157 3.1062 62.9291 3.1062C64.5995 3.1062 66.3337 3.80744 66.3337 5.80954H64.545C64.4434 5.08243 63.6913 4.77662 62.9254 4.77662C62.1595 4.77662 61.4084 5.18406 61.4084 5.87329C61.4084 6.66415 62.1863 6.84246 63.1176 6.94409C65.0042 7.1104 66.6229 7.53077 66.6229 9.62341C66.6229 11.7281 64.8 12.3785 63.0409 12.4164C61.255 12.4164 59.4062 11.5368 59.4062 9.58553L61.2328 9.58368Z" fill="#383535"/>
<path d="M73.4734 10.744L72.786 12.2222H70.7969V11.9672L74.9027 3.21973H75.7813L79.8622 11.9672V12.2222H77.886L77.1847 10.744H73.4734ZM74.0989 9.13732H76.5731L75.336 6.19192L74.0989 9.13732Z" fill="#383535"/>
<path d="M83.4082 4.95509V3.29761H90.0141V4.95509H87.6424V12.2234H85.7946V4.95509H83.4082Z" fill="#383535"/>
<path d="M94.9727 9.25031V3.29761H96.8861V9.21058C96.8861 10.1668 97.664 10.6519 98.5435 10.6519C99.4231 10.6519 100.188 10.1668 100.188 9.21058V3.29761H102.076V9.25031C102.076 11.2524 100.43 12.3361 98.5435 12.3361C96.6569 12.3361 94.9727 11.2543 94.9727 9.25031Z" fill="#383535"/>
<path d="M28.3361 30.1562H13.8438C10.1722 30.1562 6.65095 28.6976 4.05474 26.1014C1.45853 23.5052 0 19.984 0 16.3124C-5.49824e-08 14.1699 0.422056 12.0484 1.24206 10.0691C2.06207 8.08972 3.26397 6.29129 4.77911 4.77649C6.29425 3.26169 8.09295 2.06021 10.0725 1.24065C12.052 0.42109 14.1736 -0.000484966 16.3161 4.18662e-07H39.2381C39.8215 2.09288e-05 40.3952 0.148631 40.9052 0.431814C41.4151 0.714996 41.8446 1.12342 42.153 1.61856C42.4614 2.11369 42.6386 2.67923 42.6678 3.26182C42.6971 3.84442 42.5775 4.42487 42.3203 4.94842L30.6477 28.7158C30.4356 29.148 30.1065 29.5121 29.6979 29.7667C29.2893 30.0213 28.8175 30.1562 28.3361 30.1562Z" fill="#25B6EA"/>
<path d="M24.1837 13.8438H38.6751C42.3468 13.8437 45.8681 15.3023 48.4645 17.8984C51.0608 20.4946 52.5196 24.0158 52.5198 27.6875C52.5198 29.8297 52.0979 31.9509 51.2781 33.93C50.4583 35.9091 49.2568 37.7074 47.742 39.2221C46.2273 40.7369 44.429 41.9384 42.4499 42.7582C40.4708 43.578 38.3496 43.9999 36.2074 43.9999H13.2817C12.6984 43.9999 12.1246 43.8513 11.6147 43.5681C11.1047 43.2849 10.6752 42.8765 10.3668 42.3814C10.0584 41.8862 9.88125 41.3207 9.85198 40.7381C9.82271 40.1555 9.94232 39.5751 10.1995 39.0515L21.8712 15.2841C22.0837 14.852 22.4129 14.488 22.8216 14.2335C23.2303 13.9789 23.7022 13.8439 24.1837 13.8438Z" fill="#FFCC2C"/>
<path d="M24.1828 13.8438C23.7018 13.8444 23.2305 13.9796 22.8223 14.2342C22.4141 14.4887 22.0853 14.8524 21.873 15.2841L14.5742 30.1589H28.3404C28.8215 30.1586 29.2929 30.0235 29.7011 29.7689C30.1094 29.5143 30.4381 29.1505 30.6501 28.7186L37.949 13.8438H24.1828Z" fill="#029C57"/>
</svg>
